<svg width="22" height="26" viewBox="0 0 22 26" fill="none" xmlns="http://www.w3.org/2000/svg">
<path d="M18.2641 13.784C18.235 10.561 20.915 8.99304 21.0376 8.92004C19.5198 6.71704 17.1672 6.41604 16.3405 6.39204C14.3646 6.18504 12.448 7.56904 11.4415 7.56904C10.4148 7.56904 8.86487 6.41204 7.19436 6.44604C5.04469 6.47904 3.03365 7.71804 1.93069 9.64204C-0.345547 13.565 1.35209 19.33 3.53289 22.501C4.6238 24.054 5.89853 25.788 7.56703 25.727C9.19937 25.66 9.80911 24.691 11.779 24.691C13.7307 24.691 14.3033 25.727 16.005 25.688C17.7568 25.66 18.8598 24.128 19.9125 22.561C21.1732 20.781 21.6795 19.028 21.6996 18.938C21.6584 18.924 18.2973 17.647 18.2641 13.784Z" fill="white"/>
<path d="M15.0497 4.30604C15.9276 3.21304 16.5283 1.72604 16.3616 0.217041C15.0909 0.273041 13.5017 1.09204 12.5866 2.16104C11.777 3.10304 11.0537 4.64704 11.2405 6.09904C12.668 6.20504 14.1336 5.38204 15.0497 4.30604Z" fill="white"/>
</svg>
