<svg width="30" height="30" viewBox="0 0 30 30" fill="none" xmlns="http://www.w3.org/2000/svg">
<path d="M6.74181 23.5545C7.94143 25 10.1741 25 14.6395 25H15.3607C19.8261 25 22.0589 25 23.2585 23.5545M6.74181 23.5545C5.54219 22.1091 5.95365 19.9146 6.77657 15.5257C7.36179 12.4045 7.65441 10.8439 8.7653 9.92196M6.74181 23.5545C6.74181 23.5545 6.74181 23.5545 6.74181 23.5545ZM23.2585 23.5545C24.4581 22.1091 24.0466 19.9146 23.2237 15.5257C22.6385 12.4045 22.3459 10.8439 21.235 9.92196M23.2585 23.5545C23.2585 23.5545 23.2585 23.5545 23.2585 23.5545ZM21.235 9.92196C20.1241 9 18.5363 9 15.3607 9H14.6395C11.464 9 9.8762 9 8.7653 9.92196M21.235 9.92196C21.235 9.92196 21.235 9.92196 21.235 9.92196ZM8.7653 9.92196C8.7653 9.92196 8.7653 9.92196 8.7653 9.92196Z" stroke="#E81D1C" stroke-width="1.5"/>
<path d="M13 17.3C13.5207 17.7686 13.8126 18.0314 14.3333 18.5L17 15.5" stroke="#E81D1C" stroke-width="1.5" stroke-linecap="round" stroke-linejoin="round"/>
<path d="M12 9V8C12 6.34315 13.3431 5 15 5C16.6569 5 18 6.34315 18 8V9" stroke="#E81D1C" stroke-width="1.5" stroke-linecap="round"/>
</svg>
