<svg width="30" height="30" viewBox="0 0 30 30" fill="none" xmlns="http://www.w3.org/2000/svg">
<path d="M10.5063 18.2648C10.6166 18.6641 11.0296 18.8983 11.4289 18.788C11.8282 18.6777 12.0624 18.2646 11.9521 17.8654L10.5063 18.2648ZM9.07692 10.2746L9.79984 10.0749V10.0749L9.07692 10.2746ZM7.7037 8.9201L7.50319 9.6428L7.7037 8.9201ZM6.20051 7.72471C5.80138 7.61398 5.38804 7.84777 5.2773 8.2469C5.16656 8.64604 5.40035 9.05937 5.79949 9.17011L6.20051 7.72471ZM23.1886 18.7256C23.5895 18.6214 23.8301 18.212 23.7259 17.8111C23.6217 17.4102 23.2123 17.1696 22.8114 17.2738L23.1886 18.7256ZM13.1978 20.559C13.5074 21.6796 12.8278 22.862 11.6239 23.1749L12.0012 24.6266C13.9782 24.1128 15.1863 22.124 14.6436 20.1595L13.1978 20.559ZM11.6239 23.1749C10.4122 23.4898 9.19622 22.7865 8.88401 21.6563L7.43817 22.0558C7.97829 24.0108 10.032 25.1384 12.0012 24.6266L11.6239 23.1749ZM8.88401 21.6563C8.57441 20.5357 9.254 19.3533 10.4579 19.0405L10.0806 17.5887C8.10356 18.1025 6.89544 20.0913 7.43817 22.0558L8.88401 21.6563ZM10.4579 19.0405C11.6696 18.7255 12.8856 19.4288 13.1978 20.559L14.6436 20.1595C14.1035 18.2045 12.0498 17.0769 10.0806 17.5887L10.4579 19.0405ZM11.9521 17.8654L9.79984 10.0749L8.354 10.4743L10.5063 18.2648L11.9521 17.8654ZM7.90421 8.1974L6.20051 7.72471L5.79949 9.17011L7.50319 9.6428L7.90421 8.1974ZM9.79984 10.0749C9.54671 9.15862 8.8211 8.45179 7.90421 8.1974L7.50319 9.6428C7.92878 9.76088 8.24573 10.0824 8.354 10.4743L9.79984 10.0749ZM14.1093 21.0851L23.1886 18.7256L22.8114 17.2738L13.732 19.6334L14.1093 21.0851Z" fill="#E81D1C"/>
<path d="M12.5654 11.7305C12.0804 9.97492 11.8379 9.09714 12.2495 8.40562C12.6612 7.71409 13.5662 7.47889 15.3763 7.00849L17.2962 6.50955C19.1062 6.03915 20.0113 5.80394 20.7242 6.20319C21.4372 6.60244 21.6797 7.48023 22.1647 9.2358L22.6792 11.0979C23.1642 12.8534 23.4067 13.7312 22.995 14.4227C22.5834 15.1143 21.6784 15.3495 19.8683 15.8199L17.9484 16.3188C16.1384 16.7892 15.2333 17.0244 14.5203 16.6252C13.8073 16.2259 13.5648 15.3481 13.0798 13.5926L12.5654 11.7305Z" stroke="#E81D1C" stroke-width="1.5"/>
</svg>
