<svg width="18" height="15" viewBox="0 0 18 15" fill="none" xmlns="http://www.w3.org/2000/svg">
<path d="M15.3832 1.10942C13.1832 -0.293318 10.4665 0.361291 8.99985 1.96664C7.53319 0.361291 4.81652 -0.301111 2.61652 1.10942C1.44985 1.85754 0.716519 3.12 0.666519 4.4526C0.549852 7.47627 3.41652 9.89988 7.79152 13.6171L7.87485 13.6873C8.50819 14.225 9.48319 14.225 10.1165 13.6795L10.2082 13.6015C14.5832 9.89209 17.4415 7.46848 17.3332 4.44481C17.2832 3.12 16.5499 1.85754 15.3832 1.10942V1.10942ZM9.08319 12.456L8.99985 12.5339L8.91652 12.456C4.94985 9.09721 2.33319 6.87621 2.33319 4.62404C2.33319 3.06545 3.58319 1.89651 5.24985 1.89651C6.53319 1.89651 7.78319 2.66801 8.22485 3.73565H9.78319C10.2165 2.66801 11.4665 1.89651 12.7499 1.89651C14.4165 1.89651 15.6665 3.06545 15.6665 4.62404C15.6665 6.87621 13.0499 9.09721 9.08319 12.456Z" fill="black"/>
</svg>
