<svg width="17" height="17" viewBox="0 0 17 17" fill="none" xmlns="http://www.w3.org/2000/svg">
<path d="M13.4583 7.79167H3.54167C2.75926 7.79167 2.125 8.42593 2.125 9.20833V14.1667C2.125 14.9491 2.75926 15.5833 3.54167 15.5833H13.4583C14.2407 15.5833 14.875 14.9491 14.875 14.1667V9.20833C14.875 8.42593 14.2407 7.79167 13.4583 7.79167Z" stroke="#8A8B8D" stroke-width="1.41667" stroke-linecap="round" stroke-linejoin="round"/>
<path d="M4.95801 7.79167V4.95833C4.95801 4.01902 5.33115 3.11819 5.99534 2.454C6.65953 1.7898 7.56037 1.41667 8.49967 1.41667C9.43898 1.41667 10.3398 1.7898 11.004 2.454C11.6682 3.11819 12.0413 4.01902 12.0413 4.95833V7.79167" stroke="#8A8B8D" stroke-width="1.41667" stroke-linecap="round" stroke-linejoin="round"/>
</svg>
