<svg width="24" height="24" viewBox="0 0 24 24" fill="none" xmlns="http://www.w3.org/2000/svg">
<path fill-rule="evenodd" clip-rule="evenodd" d="M6 16.8H18C21.3137 16.8 24 19.4863 24 22.8C24 23.4627 23.4627 24 22.8 24C22.1846 24 21.6774 23.5368 21.6081 22.9399L21.5939 22.5885C21.4884 20.7687 20.0313 19.3116 18.2115 19.2061L18 19.2H6C4.01178 19.2 2.4 20.8118 2.4 22.8C2.4 23.4627 1.86274 24 1.2 24C0.537258 24 0 23.4627 0 22.8C0 19.5735 2.54677 16.9418 5.73973 16.8055L6 16.8H18H6ZM12 0C15.9765 0 19.2 3.22355 19.2 7.2C19.2 11.1765 15.9765 14.4 12 14.4C8.02355 14.4 4.8 11.1765 4.8 7.2C4.8 3.22355 8.02355 0 12 0ZM12 2.4C9.34903 2.4 7.2 4.54903 7.2 7.2C7.2 9.85097 9.34903 12 12 12C14.651 12 16.8 9.85097 16.8 7.2C16.8 4.54903 14.651 2.4 12 2.4Z" fill="#E81D1C"/>
</svg>
