<svg width="18" height="18" viewBox="0 0 18 18" fill="none" xmlns="http://www.w3.org/2000/svg">
<path d="M6.66099 0H0.95157C0.425352 0 0 0.425352 0 0.95157V6.66099C0 7.18721 0.425352 7.61256 0.95157 7.61256H6.66099C7.18721 7.61256 7.61256 7.18721 7.61256 6.66099V0.95157C7.61256 0.425352 7.18721 0 6.66099 0ZM5.70942 5.70942H1.90314V1.90314H5.70942V5.70942ZM16.1767 0H10.4673C9.94105 0 9.5157 0.425352 9.5157 0.95157V6.66099C9.5157 7.18721 9.94105 7.61256 10.4673 7.61256H16.1767C16.7029 7.61256 17.1283 7.18721 17.1283 6.66099V0.95157C17.1283 0.425352 16.7029 0 16.1767 0ZM15.2251 5.70942H11.4188V1.90314H15.2251V5.70942ZM6.66099 9.5157H0.95157C0.425352 9.5157 0 9.94105 0 10.4673V16.1767C0 16.7029 0.425352 17.1283 0.95157 17.1283H6.66099C7.18721 17.1283 7.61256 16.7029 7.61256 16.1767V10.4673C7.61256 9.94105 7.18721 9.5157 6.66099 9.5157ZM5.70942 15.2251H1.90314V11.4188H5.70942V15.2251ZM13.322 9.5157C11.2228 9.5157 9.5157 11.2228 9.5157 13.322C9.5157 15.4211 11.2228 17.1283 13.322 17.1283C15.4211 17.1283 17.1283 15.4211 17.1283 13.322C17.1283 11.2228 15.4211 9.5157 13.322 9.5157ZM13.322 15.2251C12.2724 15.2251 11.4188 14.3716 11.4188 13.322C11.4188 12.2724 12.2724 11.4188 13.322 11.4188C14.3716 11.4188 15.2251 12.2724 15.2251 13.322C15.2251 14.3716 14.3716 15.2251 13.322 15.2251Z" fill="white"/>
</svg>
