<svg width="18" height="15" viewBox="0 0 18 15" fill="none" xmlns="http://www.w3.org/2000/svg">
<path d="M15.3834 1.10942C13.1834 -0.293318 10.4668 0.361291 9.0001 1.96664C7.53343 0.361291 4.81676 -0.301111 2.61676 1.10942C1.4501 1.85754 0.716763 3.12 0.666763 4.4526C0.550096 7.47627 3.41676 9.89988 7.79176 13.6171L7.8751 13.6873C8.50843 14.225 9.48343 14.225 10.1168 13.6795L10.2084 13.6015C14.5834 9.89209 17.4418 7.46848 17.3334 4.44481C17.2834 3.12 16.5501 1.85754 15.3834 1.10942ZM9.08343 12.456L9.0001 12.5339L8.91676 12.456C4.9501 9.09721 2.33343 6.87621 2.33343 4.62404C2.33343 3.06545 3.58343 1.89651 5.2501 1.89651C6.53343 1.89651 7.78343 2.66801 8.2251 3.73565H9.78343C10.2168 2.66801 11.4668 1.89651 12.7501 1.89651C14.4168 1.89651 15.6668 3.06545 15.6668 4.62404C15.6668 6.87621 13.0501 9.09721 9.08343 12.456Z" fill="black"/>
</svg>
