<svg width="38" height="28" viewBox="0 0 38 28" fill="none" xmlns="http://www.w3.org/2000/svg">
<path d="M33.394 22.6827C33.8951 22.6822 34.3756 22.4828 34.7299 22.1285C35.0843 21.7741 35.2836 21.2937 35.2842 20.7925V1.89023C35.2836 1.38909 35.0843 0.90864 34.7299 0.55428C34.3756 0.199919 33.8951 0.000583643 33.394 0H4.41049C3.90935 0.000583643 3.4289 0.199919 3.07454 0.55428C2.72018 0.90864 2.52085 1.38909 2.52026 1.89023V20.7925C2.52085 21.2937 2.72018 21.7741 3.07454 22.1285C3.4289 22.4828 3.90935 22.6822 4.41049 22.6827H33.394ZM5.04057 2.5203H32.7639V20.1624H5.04057V2.5203Z" fill="black"/>
<path d="M37.8046 25.203H0V27.7234H37.8046V25.203Z" fill="black"/>
</svg>
