<svg width="25" height="26" viewBox="0 0 25 26" fill="none" xmlns="http://www.w3.org/2000/svg">
<path d="M0.744091 0.56749C0.441637 0.876186 0.266602 1.3568 0.266602 1.97921V24.1802C0.266602 24.8026 0.441637 25.2832 0.744091 25.5919L0.818739 25.6597L13.5784 13.224V12.9304L0.818739 0.49471L0.744091 0.56749Z" fill="url(#paint0_linear_79_1052)"/>
<path d="M17.8269 17.3711L13.5784 13.2238V12.9301L17.832 8.78283L17.9273 8.8368L22.9647 11.6314C24.4023 12.4244 24.4023 13.7295 22.9647 14.5276L17.9273 17.3171L17.8269 17.3711V17.3711Z" fill="url(#paint1_linear_79_1052)"/>
<path d="M17.9273 17.3173L13.5785 13.0772L0.744141 25.5919C1.22163 26.0813 2.00029 26.1403 2.88577 25.6509L17.9273 17.3173" fill="url(#paint2_linear_79_1052)"/>
<path d="M17.9273 8.83698L2.88577 0.503458C2.00029 0.0190823 1.22163 0.0780591 0.744141 0.567454L13.5785 13.0771L17.9273 8.83698Z" fill="url(#paint3_linear_79_1052)"/>
<defs>
<linearGradient id="paint0_linear_79_1052" x1="12.4455" y1="24.4114" x2="-4.39675" y2="7.1373" gradientUnits="userSpaceOnUse">
<stop stop-color="#00A0FF"/>
<stop offset="0.0066" stop-color="#00A1FF"/>
<stop offset="0.2601" stop-color="#00BEFF"/>
<stop offset="0.5122" stop-color="#00D2FF"/>
<stop offset="0.7604" stop-color="#00DFFF"/>
<stop offset="1" stop-color="#00E3FF"/>
</linearGradient>
<linearGradient id="paint1_linear_79_1052" x1="24.8367" y1="13.0756" x2="-0.0770738" y2="13.0756" gradientUnits="userSpaceOnUse">
<stop stop-color="#FFE000"/>
<stop offset="0.4087" stop-color="#FFBD00"/>
<stop offset="0.7754" stop-color="#FFA500"/>
<stop offset="1" stop-color="#FF9C00"/>
</linearGradient>
<linearGradient id="paint2_linear_79_1052" x1="15.5626" y1="10.7721" x2="-7.2769" y2="-12.6529" gradientUnits="userSpaceOnUse">
<stop stop-color="#FF3A44"/>
<stop offset="1" stop-color="#C31162"/>
</linearGradient>
<linearGradient id="paint3_linear_79_1052" x1="-2.48652" y1="32.978" x2="7.71232" y2="22.5178" gradientUnits="userSpaceOnUse">
<stop stop-color="#32A071"/>
<stop offset="0.0685" stop-color="#2DA771"/>
<stop offset="0.4762" stop-color="#15CF74"/>
<stop offset="0.8009" stop-color="#06E775"/>
<stop offset="1" stop-color="#00F076"/>
</linearGradient>
</defs>
</svg>
