<svg width="20" height="18" viewBox="0 0 20 18" fill="none" xmlns="http://www.w3.org/2000/svg">
<path d="M19.08 4.00001C18.9072 3.70063 18.6598 3.45114 18.3618 3.27588C18.0639 3.10062 17.7256 3.00557 17.38 3.00001H4.58L4 0.740007C3.9414 0.521845 3.81066 0.329951 3.62908 0.195579C3.44749 0.0612064 3.22576 -0.00772659 3 6.64638e-06H1C0.734784 6.64638e-06 0.48043 0.105363 0.292893 0.2929C0.105357 0.480436 0 0.73479 0 1.00001C0 1.26522 0.105357 1.51958 0.292893 1.70711C0.48043 1.89465 0.734784 2.00001 1 2.00001H2.24L5 12.26C5.0586 12.4782 5.18934 12.6701 5.37092 12.8044C5.55251 12.9388 5.77424 13.0077 6 13H15C15.1847 12.9994 15.3656 12.9478 15.5227 12.8507C15.6798 12.7536 15.8069 12.6149 15.89 12.45L19.17 5.89001C19.3122 5.59202 19.3783 5.26348 19.3626 4.93369C19.3469 4.6039 19.2498 4.28313 19.08 4.00001ZM14.38 11H6.76L5.13 5.00001H17.38L14.38 11Z" fill="#231F20"/>
<path d="M5.5 18C6.32843 18 7 17.3284 7 16.5C7 15.6716 6.32843 15 5.5 15C4.67157 15 4 15.6716 4 16.5C4 17.3284 4.67157 18 5.5 18Z" fill="#231F20"/>
<path d="M15.5 18C16.3284 18 17 17.3284 17 16.5C17 15.6716 16.3284 15 15.5 15C14.6716 15 14 15.6716 14 16.5C14 17.3284 14.6716 18 15.5 18Z" fill="#231F20"/>
</svg>
